<svg xmlns="http://www.w3.org/2000/svg" viewBox="0 0 32 32"><path d="M8.426 18.818c1.424 2.466 3.559 4.567 4.29 5.074.177.123.343.015.37 0 .788-.455 1.76-1.02 2.915-1.697.251-.165.6-.439 1.59-.439.99 0 6.39 2.498 6.59 2.847.202.348.5.87-.401 3.791-.901 2.922-1.353 3.176-1.72 3.388a1.51 1.51 0 0 1-1.153.172c-3.409-.82-6.482-2.26-9.22-4.32a24.036 24.036 0 0 1-6.415-7.248 24.036 24.036 0 0 1-3.069-9.18c-.415-3.4-.213-6.695.78-10.057.117-.397.447-.789.814-1 .367-.212.966-.275 3.674.343 2.707.618 3.585 1.317 3.585 2.016 0 .698-.194 4.775-.435 5.582-.242.806-.68 1.553-1.283 1.998a145.334 145.334 0 0 0-3.127 1.739c-.048.027-.362.192-.295.512.28 1.34 1.086 4.013 2.51 6.48z"/><path d="M16.965 17.141c-.824.556-1.72.382-2.276-.442l-.367-.544c-.556-.825-.382-1.72.443-2.276L22.292 8.8a.328.328 0 0 0-.119-.593l-3.568-.714a.752.752 0 0 1-.592-.878c.362-1.921 1.841-2.919 3.759-2.535l6.808 1.364c1.033.206 1.576 1.012 1.38 2.046l-1.286 6.824c-.362 1.921-1.84 2.919-3.758 2.535a.752.752 0 0 1-.592-.877l.674-3.576a.328.328 0 0 0-.505-.333l-7.528 5.077z"/></svg>