<svg xmlns="http://www.w3.org/2000/svg" viewBox="0 0 32 32"><path d="M18.132 4.304c-.2-.025-.41-.038-.627-.038H8.094C6.096 4.266 4.8 5.343 4.8 7.004v17.99c0 1.66 1.296 2.737 3.294 2.737h9.41c.218 0 .428-.012.628-.037v.57c0 2.265-1.469 3.734-3.733 3.734H3.733C1.47 31.998 0 30.529 0 28.265V3.733C0 1.47 1.469 0 3.733 0H14.4c2.264 0 3.733 1.469 3.733 3.733v.571z"/><path d="M10.979 17.98c-1.25 0-2.061-.822-2.061-2.087v-.835c0-1.265.81-2.086 2.06-2.086h11.806a.25.25 0 0 0 .18-.425l-3.496-3.579a.966.966 0 0 1 0-1.346c1.728-1.77 3.97-1.77 5.698 0l6.136 6.283c.93.952.93 2.188 0 3.141l-6.136 6.283c-1.728 1.77-3.97 1.77-5.698 0a.966.966 0 0 1 0-1.347l3.495-3.578a.25.25 0 0 0-.179-.425H10.98z"/></svg>