<svg xmlns="http://www.w3.org/2000/svg" viewBox="0 0 32 32"><path d="M12.14 20.004c2.076 2.076 4.761 3.597 5.624 3.907.21.076.347-.076.37-.099.662-.662 1.478-1.485 2.448-2.466.206-.231.481-.597 1.467-.861.986-.264 7.026.782 7.32 1.075.293.293.73.733.611 3.882-.118 3.149-.5 3.523-.808 3.831a1.565 1.565 0 0 1-1.103.48c-3.612.092-7.055-.522-10.33-1.843a24.773 24.773 0 0 1-8.32-5.503 24.773 24.773 0 0 1-5.504-8.32C2.595 10.81 1.916 7.478 2.008 3.866c.011-.427.235-.904.544-1.213.309-.309.888-.53 3.749-.638 2.86-.107 3.92.355 4.107 1.05.186.696 1.08 4.806 1.055 5.674-.025.867-.261 1.727-.744 2.331a150.608 150.608 0 0 0-2.649 2.565c-.04.04-.309.289-.157.589.636 1.259 2.152 3.705 4.228 5.78z"/></svg>