<svg xmlns="http://www.w3.org/2000/svg" viewBox="0 0 32 32"><path d="M8.51 18.72c-2.086-.512-3.374-2.211-3.374-4.607 0-2.893 1.877-4.77 4.77-4.77s4.77 1.877 4.77 4.77c0 1.43-.459 2.61-1.272 3.44a50.713 50.713 0 0 1 2.657-.057c5.786 0 9.539.495 9.539 5.661 0 1.742-2.17 2.898-5.046 3.466.101-.244.154-.503.154-.776 0-5.166-3.753-5.66-9.539-5.66-1.522 0-2.904.033-4.114.177A3.923 3.923 0 0 1 8.51 18.72zm7.13-2.774c.431-.73.666-1.626.666-2.649 0-2.592-1.507-4.368-3.902-4.71.528-2.055 2.219-3.32 4.595-3.32 2.893 0 4.77 1.876 4.77 4.77 0 1.303-.382 2.401-1.066 3.213.562-.015 1.149-.02 1.758-.02 5.786 0 9.539.494 9.539 5.66 0 1.743-2.17 2.898-5.046 3.466.101-.244.154-.502.154-.775 0-5.166-3.753-5.661-9.539-5.661-.67 0-1.315.006-1.929.026zm7.308-5.423c.106-.432.16-.898.16-1.394 0-2.74-1.682-4.567-4.318-4.753C19.302 2.288 21.002 1 23.4 1c2.893 0 4.77 1.876 4.77 4.77 0 2.892-1.877 4.769-4.77 4.769a6.06 6.06 0 0 1-.451-.016zM0 27.478c0-5.174 3.753-5.661 9.539-5.661s9.539.495 9.539 5.661c0 5.166-19.078 5.175-19.078 0z"/></svg>