<svg xmlns="http://www.w3.org/2000/svg" viewBox="0 0 32 32"><path class="cog" d="M12 5.359V1a1 1 0 0 1 1-1h6a1 1 0 0 1 1 1v4.366a1 1 0 0 0 .598.916l1.942.852a1 1 0 0 0 .902-.05l3.548-2.048a1 1 0 0 1 1.366.366l3 5.196a1 1 0 0 1-.366 1.366l-3.468 2.003a1 1 0 0 0-.5.864l-.004 2.333a1 1 0 0 0 .5.867l3.472 2.005a1 1 0 0 1 .366 1.366l-3 5.196a1 1 0 0 1-1.366.366l-3.542-2.045a1 1 0 0 0-.908-.047l-1.948.87a1 1 0 0 0-.592.913V31a1 1 0 0 1-1 1h-6a1 1 0 0 1-1-1v-4.336a1 1 0 0 0-.587-.911l-1.943-.881a1 1 0 0 0-.913.044L5.01 26.964a1 1 0 0 1-1.366-.366l-3-5.196a1 1 0 0 1 .366-1.366l3.496-2.019a1 1 0 0 0 .5-.865l.002-2.3a1 1 0 0 0-.5-.868l-3.498-2.02a1 1 0 0 1-.366-1.366l3-5.196a1 1 0 0 1 1.366-.366l3.554 2.052a1 1 0 0 0 .907.047l1.936-.863A1 1 0 0 0 12 5.36zM16 21a5 5 0 1 0 0-10 5 5 0 0 0 0 10z"/></svg>